# xmcd CD database file
#
# Track frame offsets:
#	150
#	23370
#	42585
#	70985
#	92813
#	116615
#	139615
#	164013
#	183035
#	211805
#	243390
#
# Disc length: 3528 seconds
#
# Revision: 1
# Processed by: cddbd v1.5.1PL0 Copyright (c) Steve Scherf et al.
# Submitted via: CDex 1.51
#
DISCID=910dc60b
DTITLE=熱帯JAZZ楽団 - 熱帯JAZZ楽団 IX 〜Mas Tropical!〜
DYEAR=2005
DGENRE=Jazz
TTITLE0=Machete
TTITLE1=Orange Express feat. Sadao Watanabe
TTITLE2=El Futuro for KOBE and NIIGATA
TTITLE3=Casa Verde
TTITLE4=Cosa Latina
TTITLE5=Besame Mucho feat. Sadao Watanabe
TTITLE6=Mambeo Mareo
TTITLE7=Quien Sera
TTITLE8=Tu Pintura
TTITLE9=Almost There
TTITLE10=Moliendo Cafe feat. Three Bicrees
EXTD=YEAR: 2005
EXTT0=
EXTT1=
EXTT2=
EXTT3=
EXTT4=
EXTT5=
EXTT6=
EXTT7=
EXTT8=
EXTT9=
EXTT10=
PLAYORDER=
